<?xml version="1.0" encoding="UTF-8"?>
<svg id="Layer_2" data-name="Layer 2" xmlns="http://www.w3.org/2000/svg" xmlns:xlink="http://www.w3.org/1999/xlink" viewBox="0 0 459.02 260.44">
  <defs>
    <style>
      .cls-1 {
        fill: url(#linear-gradient-2);
      }

      .cls-2 {
        fill: #d8a573;
      }

      .cls-3 {
        fill: url(#linear-gradient);
      }
    </style>
    <linearGradient id="linear-gradient" x1="0" y1="167.42" x2="459.02" y2="167.42" gradientUnits="userSpaceOnUse">
      <stop offset="0" stop-color="#fbaa7f"/>
      <stop offset=".5" stop-color="#f7cb6c"/>
      <stop offset="1" stop-color="#fbaa80"/>
    </linearGradient>
    <linearGradient id="linear-gradient-2" x1="15.27" y1="246.8" x2="443.76" y2="246.8" xlink:href="#linear-gradient"/>
  </defs>
  <g id="Layer_1-2" data-name="Layer 1">
    <g>
      <path class="cls-2" d="M279.69,8.76c17.51,12.57,22.16,34.03,35.77,49.48,11.02,12.52,25.67,20.99,42.98,18.65,4.89-.66,9.01-3.79,13.85-4.23,1.27,1.18-7.66,9.7-8.85,10.71-18.47,15.55-45.4,12.38-66.66,4.62-24.62-8.99-48.05-24.45-67.51-41.79-5.44,4.27-10.26,9.31-15.8,13.49-27.13,20.5-79.46,47.1-112.4,28.34-2.75-1.57-14.1-11.81-14.46-14.34-.14-.99.67-1.77,1.68-1.68.75.07,6.28,3.43,8.56,4.01,15.13,3.88,30.99-2.37,42.13-12.57C162.22,42.16,167.1-6.22,210.64.66c7.94,1.25,12.95,5.87,18.79,10.76,4.7-3.46,9.02-7.79,14.73-9.66,11.74-3.85,25.89.07,35.54,6.99Z"/>
      <path class="cls-3" d="M0,167.66v-.24c0-23.64,18.41-43,43.6-43,12.59,0,20.91,2.85,28.39,8.08,1.78,1.31,3.8,3.8,3.8,7.36,0,4.99-4.04,9.03-9.03,9.03-2.61,0-4.28-.95-5.58-1.9-4.99-3.56-10.33-5.7-18.17-5.7-13.3,0-23.88,11.76-23.88,25.9v.24c0,15.21,10.45,26.37,25.18,26.37,6.65,0,12.59-1.66,17.22-4.99v-11.88h-12.35c-4.4,0-7.96-3.44-7.96-7.84s3.56-7.96,7.96-7.96h20.91c5.11,0,9.15,4.04,9.15,9.15v20.19c0,5.35-2.02,9.03-6.41,11.64-6.77,4.16-16.63,8.32-29.1,8.32-25.9,0-43.71-18.17-43.71-42.76ZM95.51,173.36v-39.08c0-5.11,4.04-9.15,9.15-9.15s9.15,4.04,9.15,9.15v38.61c0,13.54,6.77,20.55,17.94,20.55s17.94-6.77,17.94-19.96v-39.2c0-5.11,4.04-9.15,9.15-9.15s9.15,4.04,9.15,9.15v38.49c0,25.18-14.14,37.54-36.47,37.54s-35.99-12.47-35.99-36.94ZM186.63,134.52c0-5.11,4.04-9.15,9.15-9.15h1.9c4.4,0,7.01,2.14,9.5,5.35l35.28,46.33v-42.88c0-4.99,4.04-9.03,9.03-9.03s9.03,4.04,9.03,9.03v66.17c0,5.11-4.04,9.15-9.15,9.15h-.59c-4.4,0-7.01-2.14-9.5-5.35l-36.59-47.99v44.55c0,4.99-4.04,9.03-9.03,9.03s-9.03-4.04-9.03-9.03v-66.17ZM280.48,134.52c0-5.11,4.04-9.15,9.15-9.15h1.9c4.39,0,7.01,2.14,9.5,5.35l35.28,46.33v-42.88c0-4.99,4.04-9.03,9.03-9.03s9.03,4.04,9.03,9.03v66.17c0,5.11-4.04,9.15-9.15,9.15h-.59c-4.4,0-7.01-2.14-9.5-5.35l-36.59-47.99v44.55c0,4.99-4.04,9.03-9.03,9.03s-9.03-4.04-9.03-9.03v-66.17ZM370.64,167.66v-.24c0-23.64,18.65-43,44.31-43s44.07,19.12,44.07,42.76v.24c0,23.64-18.65,43-44.31,43s-44.07-19.12-44.07-42.76ZM439.9,167.66v-.24c0-14.25-10.45-26.13-25.18-26.13s-24.95,11.64-24.95,25.9v.24c0,14.25,10.45,26.13,25.18,26.13s24.95-11.64,24.95-25.9Z"/>
      <path class="cls-1" d="M15.27,236.36c0-1.62,1.28-2.9,2.9-2.9h.64c1.24,0,2.11.64,2.64,1.51l7.01,11.42,7.05-11.46c.6-.98,1.43-1.47,2.6-1.47h.64c1.62,0,2.9,1.28,2.9,2.9v20.96c0,1.62-1.28,2.9-2.9,2.9s-2.86-1.32-2.86-2.9v-13.15l-5.09,7.84c-.6.9-1.36,1.47-2.41,1.47s-1.81-.57-2.41-1.47l-5.01-7.73v13.12c0,1.58-1.28,2.83-2.86,2.83s-2.83-1.24-2.83-2.83v-21.03ZM47.98,257.09v-20.58c0-1.62,1.28-2.9,2.9-2.9h14.62c1.43,0,2.6,1.17,2.6,2.6s-1.17,2.56-2.6,2.56h-11.76v5.35h10.06c1.43,0,2.6,1.17,2.6,2.6s-1.17,2.56-2.6,2.56h-10.06v5.54h11.95c1.43,0,2.6,1.17,2.6,2.6s-1.17,2.56-2.6,2.56h-14.81c-1.62,0-2.9-1.28-2.9-2.9ZM73.23,236.51c0-1.62,1.28-2.9,2.9-2.9h7.39c8.29,0,14.02,5.69,14.02,13.12v.08c0,7.42-5.73,13.19-14.02,13.19h-7.39c-1.62,0-2.9-1.28-2.9-2.9v-20.58ZM83.52,254.75c4.75,0,7.95-3.2,7.95-7.88v-.08c0-4.67-3.2-7.95-7.95-7.95h-4.48v15.9h4.48ZM102.97,236.28c0-1.62,1.28-2.9,2.9-2.9s2.9,1.28,2.9,2.9v21.03c0,1.62-1.28,2.9-2.9,2.9s-2.9-1.28-2.9-2.9v-21.03ZM113.9,256.26l9.2-20.77c.64-1.43,1.81-2.3,3.39-2.3h.34c1.58,0,2.71.87,3.35,2.3l9.2,20.77c.19.41.3.79.3,1.17,0,1.55-1.21,2.79-2.75,2.79-1.36,0-2.26-.79-2.79-2l-1.77-4.15h-11.61l-1.85,4.33c-.49,1.13-1.47,1.81-2.68,1.81-1.51,0-2.68-1.21-2.68-2.71,0-.42.15-.83.34-1.24ZM130.22,248.95l-3.66-8.71-3.66,8.71h7.31ZM155.55,236.51c0-1.62,1.28-2.9,2.9-2.9h7.88c6.29,0,10.1,3.73,10.1,9.12v.08c0,6.11-4.75,9.27-10.67,9.27h-4.41v5.24c0,1.62-1.28,2.9-2.9,2.9s-2.9-1.28-2.9-2.9v-20.8ZM165.95,246.91c2.9,0,4.6-1.73,4.6-4v-.08c0-2.6-1.81-4-4.71-4h-4.48v8.07h4.6ZM180.72,236.51c0-1.62,1.28-2.9,2.9-2.9h9.16c3.35,0,5.95.94,7.69,2.68,1.47,1.47,2.26,3.54,2.26,6.03v.08c0,4.15-2.07,6.71-5.28,8.03l4.03,4.9c.57.72.94,1.32.94,2.22,0,1.62-1.36,2.68-2.75,2.68-1.32,0-2.19-.64-2.86-1.51l-5.65-7.16h-4.64v5.77c0,1.62-1.28,2.9-2.9,2.9s-2.9-1.28-2.9-2.9v-20.8ZM192.41,246.42c2.83,0,4.45-1.51,4.45-3.73v-.08c0-2.49-1.73-3.77-4.56-3.77h-5.77v7.58h5.88ZM206.8,246.87v-.08c0-7.5,5.92-13.64,14.06-13.64s13.98,6.07,13.98,13.57v.08c0,7.5-5.92,13.64-14.06,13.64s-13.98-6.07-13.98-13.57ZM228.78,246.87v-.08c0-4.52-3.32-8.29-7.99-8.29s-7.92,3.69-7.92,8.22v.08c0,4.52,3.32,8.29,7.99,8.29s7.91-3.69,7.91-8.22ZM240.01,236.51c0-1.62,1.28-2.9,2.9-2.9h7.39c8.29,0,14.02,5.69,14.02,13.12v.08c0,7.42-5.73,13.19-14.02,13.19h-7.39c-1.62,0-2.9-1.28-2.9-2.9v-20.58ZM250.3,254.75c4.75,0,7.95-3.2,7.95-7.88v-.08c0-4.67-3.2-7.95-7.95-7.95h-4.48v15.9h4.48ZM269.07,248.68v-12.4c0-1.62,1.28-2.9,2.9-2.9s2.9,1.28,2.9,2.9v12.25c0,4.3,2.15,6.52,5.69,6.52s5.69-2.15,5.69-6.33v-12.44c0-1.62,1.28-2.9,2.9-2.9s2.9,1.28,2.9,2.9v12.21c0,7.99-4.48,11.91-11.57,11.91s-11.42-3.96-11.42-11.72ZM296.81,246.87v-.08c0-7.5,5.65-13.64,13.76-13.64,3.96,0,6.63,1.06,8.82,2.68.6.45,1.13,1.28,1.13,2.3,0,1.58-1.28,2.83-2.86,2.83-.79,0-1.32-.3-1.73-.57-1.62-1.21-3.32-1.88-5.39-1.88-4.45,0-7.65,3.69-7.65,8.22v.08c0,4.52,3.13,8.29,7.65,8.29,2.45,0,4.07-.75,5.73-2.07.45-.38,1.05-.64,1.73-.64,1.47,0,2.71,1.21,2.71,2.68,0,.9-.45,1.62-.98,2.07-2.37,2.07-5.16,3.32-9.38,3.32-7.76,0-13.53-5.99-13.53-13.57ZM331.93,238.96h-5.58c-1.47,0-2.68-1.21-2.68-2.68s1.21-2.68,2.68-2.68h16.96c1.47,0,2.68,1.21,2.68,2.68s-1.21,2.68-2.68,2.68h-5.58v18.36c0,1.62-1.28,2.9-2.9,2.9s-2.9-1.28-2.9-2.9v-18.36ZM350.48,236.28c0-1.62,1.28-2.9,2.9-2.9s2.9,1.28,2.9,2.9v21.03c0,1.62-1.28,2.9-2.9,2.9s-2.9-1.28-2.9-2.9v-21.03ZM361.71,246.87v-.08c0-7.5,5.92-13.64,14.06-13.64s13.98,6.07,13.98,13.57v.08c0,7.5-5.92,13.64-14.06,13.64s-13.98-6.07-13.98-13.57ZM383.68,246.87v-.08c0-4.52-3.32-8.29-7.99-8.29s-7.91,3.69-7.91,8.22v.08c0,4.52,3.32,8.29,7.99,8.29s7.91-3.69,7.91-8.22ZM394.91,236.36c0-1.62,1.28-2.9,2.9-2.9h.6c1.39,0,2.22.68,3.02,1.7l11.19,14.7v-13.61c0-1.58,1.28-2.86,2.87-2.86s2.86,1.28,2.86,2.86v20.99c0,1.62-1.28,2.9-2.9,2.9h-.19c-1.39,0-2.22-.68-3.02-1.7l-11.61-15.23v14.13c0,1.58-1.28,2.86-2.87,2.86s-2.86-1.28-2.86-2.86v-20.99ZM424.16,257.2c-.64-.45-1.09-1.28-1.09-2.19,0-1.51,1.21-2.68,2.71-2.68.75,0,1.28.26,1.66.53,2,1.47,4.18,2.37,6.75,2.37,2.38,0,3.81-.94,3.81-2.49v-.08c0-1.47-.9-2.22-5.31-3.35-5.31-1.36-8.74-2.83-8.74-8.07v-.08c0-4.79,3.84-7.95,9.23-7.95,3.2,0,5.99.83,8.37,2.34.64.38,1.28,1.17,1.28,2.3,0,1.51-1.21,2.68-2.71,2.68-.57,0-1.02-.15-1.47-.41-1.92-1.13-3.73-1.77-5.54-1.77-2.22,0-3.39,1.02-3.39,2.3v.08c0,1.73,1.13,2.3,5.69,3.47,5.35,1.39,8.37,3.32,8.37,7.92v.08c0,5.24-3.99,8.18-9.69,8.18-3.47,0-6.97-1.06-9.91-3.17Z"/>
    </g>
  </g>
</svg>